<?xml version="1.0" encoding="utf-8"?>
<!-- Generator: Adobe Illustrator 23.0.1, SVG Export Plug-In . SVG Version: 6.00 Build 0)  -->
<svg version="1.1" id="Layer_1" xmlns="http://www.w3.org/2000/svg" xmlns:xlink="http://www.w3.org/1999/xlink" x="0px" y="0px"
	 viewBox="0 0 500 500" style="enable-background:new 0 0 500 500;" xml:space="preserve">
<style type="text/css">
	.st0{fill:#58595B;}
	.st1{fill:#FFFFFF;}
</style>
<polygon class="st0" points="350,76.79 150,76.79 50,250 150,423.21 350,423.21 450,250 "/>
<g>
	<g>
		<path class="st1" d="M114.28,197.2l2.09-2.09h39.2v22.94h-20.43L114.28,197.2z M204.36,218.05v122.19h-30.03l-20.85-20.85
			l2.09-2.09h25.86V195.11h39.2v-23.77l2.09-2.09l20.85,20.85v27.94H204.36z"/>
	</g>
	<g>
		<path class="st1" d="M254.3,197.2l2.09-2.09h39.2v22.94h-20.43L254.3,197.2z M344.37,218.05v122.19h-30.03l-20.85-20.85l2.09-2.09
			h25.86V195.11h39.2v-23.77l2.09-2.09l20.85,20.85v27.94H344.37z"/>
	</g>
</g>
</svg>
