<?xml version="1.0" encoding="utf-8"?>
<!-- Generator: Adobe Illustrator 23.0.1, SVG Export Plug-In . SVG Version: 6.00 Build 0)  -->
<svg version="1.1" id="Layer_1" xmlns="http://www.w3.org/2000/svg" xmlns:xlink="http://www.w3.org/1999/xlink" x="0px" y="0px"
	 viewBox="0 0 500 500" style="enable-background:new 0 0 500 500;" xml:space="preserve">
<style type="text/css">
	.st0{fill:none;stroke:#58595B;stroke-width:14;stroke-miterlimit:10;}
	.st1{fill:#58595B;}
	.st2{fill:#FFFFFF;}
</style>
<polygon class="st0" points="350,76.79 150,76.79 50,250 150,423.21 350,423.21 450,250 "/>
<g>
	<g>
		<path class="st1" d="M180.1,334.83l-21.27-21.27l4.19-4.19h22.19V198.19h35.67V177.9l4.19-4.19l21.27,21.27v28.67h-35.67v111.19
			H180.1z M144.43,223.64l-21.27-21.27l4.19-4.19h38.91v25.45H144.43z"/>
		<path class="st2" d="M225.07,176.95l18.97,18.97v25.43h-35.67v111.19h-27.32l-18.97-18.97l1.9-1.9h23.53V200.48h35.67v-21.63
			L225.07,176.95 M163.97,200.48v20.87h-18.59l-18.97-18.97l1.9-1.9H163.97 M225.07,170.47l-3.24,3.24l-1.9,1.9l-1.34,1.34v1.9
			v17.05H187.5h-4.58v4.58v106.61h-18.95h-1.9l-1.34,1.34l-1.9,1.9l-3.24,3.24l3.24,3.24l18.97,18.97l1.34,1.34h1.9h27.32h4.58
			v-4.58V225.93h31.09h4.58v-4.58v-25.43v-1.9l-1.34-1.34l-18.97-18.97L225.07,170.47L225.07,170.47z M168.55,195.9h-4.58H128.3
			h-1.9l-1.34,1.34l-1.9,1.9l-3.24,3.24l3.24,3.24l18.97,18.97l1.34,1.34h1.9h18.59h4.58v-4.58v-20.87V195.9L168.55,195.9z"/>
	</g>
	<g>
		<path class="st1" d="M307.51,334.83l-21.26-21.27l4.19-4.19h22.19V198.19h35.67V177.9l4.19-4.19l21.26,21.27v28.67h-35.67v111.19
			H307.51z M271.84,223.64l-21.26-21.27l4.19-4.19h38.91v25.45H271.84z"/>
		<path class="st2" d="M352.48,176.95l18.97,18.97v25.43h-35.67v111.19h-27.32l-18.97-18.97l1.9-1.9h23.53V200.48h35.67v-21.63
			L352.48,176.95 M291.38,200.48v20.87h-18.59l-18.97-18.97l1.9-1.9H291.38 M352.48,170.47l-3.24,3.24l-1.9,1.9l-1.34,1.34v1.9
			v17.05h-31.09h-4.58v4.58v106.61h-18.95h-1.9l-1.34,1.34l-1.9,1.9l-3.24,3.24l3.24,3.24l18.97,18.97l1.34,1.34h1.9h27.32h4.58
			v-4.58V225.93h31.09h4.58v-4.58v-25.43v-1.9l-1.34-1.34l-18.97-18.97L352.48,170.47L352.48,170.47z M295.97,195.9h-4.58h-35.67
			h-1.9l-1.34,1.34l-1.9,1.9l-3.24,3.24l3.24,3.24l18.97,18.97l1.34,1.34h1.9h18.59h4.58v-4.58v-20.87V195.9L295.97,195.9z"/>
	</g>
</g>
</svg>
